<?xml version="1.0" standalone="no"?>
<!DOCTYPE svg PUBLIC "-//W3C//DTD SVG 20010904//EN"
 "http://www.w3.org/TR/2001/REC-SVG-20010904/DTD/svg10.dtd">
<svg version="1.0" xmlns="http://www.w3.org/2000/svg"
 width="700.000000pt" height="700.000000pt" viewBox="0 0 700.000000 700.000000"
 preserveAspectRatio="xMidYMid meet">
<metadata>
Created by potrace 1.14, written by Peter Selinger 2001-2017
</metadata>
<g transform="translate(0.000000,700.000000) scale(0.100000,-0.100000)"
fill="#000000" stroke="none">
<path d="M3308 6995 c-2 -1 -45 -6 -96 -9 -51 -4 -102 -9 -112 -11 -10 -2 -43
-6 -72 -9 -29 -4 -64 -8 -78 -11 -13 -3 -42 -7 -65 -10 -22 -4 -56 -10 -75
-15 -19 -5 -51 -12 -70 -15 -19 -3 -53 -11 -75 -17 -22 -6 -47 -13 -56 -14 -9
-2 -69 -20 -135 -39 -425 -129 -859 -365 -1222 -665 -131 -109 -362 -344 -475
-485 -168 -208 -341 -486 -453 -730 -104 -223 -207 -529 -240 -715 -3 -14 -7
-33 -10 -42 -8 -26 -29 -156 -49 -303 -14 -97 -20 -224 -19 -405 0 -242 10
-387 39 -551 3 -14 7 -42 9 -62 9 -71 77 -344 112 -452 321 -994 1059 -1791
2016 -2179 112 -46 209 -79 393 -136 66 -20 251 -60 341 -74 22 -4 53 -9 69
-12 32 -5 63 -9 185 -21 144 -15 624 -8 767 10 939 122 1771 600 2345 1347 68
89 198 276 198 286 0 3 8 18 19 32 62 89 188 344 265 540 81 204 164 501 190
685 10 66 17 111 21 137 27 162 28 728 1 890 -3 14 -7 43 -10 65 -72 549 -327
1156 -675 1610 -151 196 -345 401 -520 549 -121 102 -369 286 -386 286 -2 0
-35 20 -72 44 -306 196 -808 386 -1190 450 -65 11 -243 36 -298 42 -60 6 -511
14 -517 9z m532 -58 c14 -3 54 -8 90 -12 75 -7 308 -49 395 -71 482 -121 944
-347 1315 -643 208 -166 431 -390 575 -575 17 -22 39 -51 51 -65 140 -176 329
-509 437 -771 33 -80 122 -340 132 -385 2 -11 14 -58 25 -105 68 -286 94 -511
94 -820 0 -155 -11 -376 -19 -390 -1 -3 -5 -27 -9 -55 -3 -27 -8 -65 -11 -82
-3 -18 -7 -47 -9 -64 -9 -61 -48 -233 -72 -319 -111 -388 -273 -734 -493
-1050 -36 -52 -71 -102 -78 -110 -6 -8 -42 -53 -80 -100 -238 -298 -553 -572
-903 -785 -90 -55 -292 -160 -390 -203 -189 -83 -527 -191 -677 -216 -18 -4
-48 -8 -65 -11 -18 -3 -40 -8 -48 -10 -29 -9 -245 -35 -345 -42 -178 -13 -567
-6 -649 12 -12 2 -41 7 -66 10 -25 3 -56 7 -70 10 -14 2 -41 7 -60 9 -263 36
-663 168 -960 317 -177 89 -429 248 -550 346 -8 6 -53 42 -99 79 -102 82 -345
321 -431 424 -91 109 -90 109 -146 185 -326 444 -530 922 -624 1460 -23 130
-24 138 -45 360 -6 56 -6 413 0 455 2 19 6 67 9 105 6 77 10 108 31 240 23
140 24 142 62 290 115 451 310 856 597 1235 43 58 86 112 95 121 9 9 38 42 65
73 131 152 368 372 517 479 13 9 52 38 87 63 168 120 443 272 642 354 58 23
119 49 135 56 17 7 68 24 115 39 47 14 96 31 110 36 28 10 259 67 305 75 17 2
37 7 45 9 8 2 33 6 55 10 22 3 67 10 100 15 33 5 98 12 145 16 47 3 87 8 89
10 7 6 551 -3 581 -9z"/>
<path d="M2041 5628 c-34 -4 -91 -17 -126 -28 -65 -22 -201 -98 -253 -142
l-28 -24 94 -239 c51 -132 106 -274 122 -315 16 -41 46 -120 68 -175 21 -55
105 -271 186 -480 81 -209 151 -389 156 -400 5 -11 23 -56 40 -100 17 -44 35
-89 39 -100 5 -11 28 -69 51 -130 23 -60 46 -119 51 -130 9 -20 139 -356 445
-1145 91 -234 171 -438 178 -455 8 -16 22 -52 31 -80 22 -60 52 -94 123 -142
183 -121 414 -103 580 46 48 43 2 -65 476 1116 97 242 181 449 186 460 5 11
52 126 104 255 88 221 142 354 509 1265 328 814 299 736 281 757 -76 83 -282
161 -449 170 l-59 3 -83 -210 c-95 -241 -135 -343 -228 -580 -37 -93 -73 -183
-80 -200 -7 -16 -32 -79 -55 -140 -23 -60 -46 -119 -51 -130 -10 -23 -167
-422 -393 -1000 -87 -220 -161 -409 -166 -420 -5 -11 -44 -108 -85 -215 -42
-107 -80 -204 -85 -215 -5 -11 -20 -47 -32 -79 -33 -83 -65 -104 -154 -97 -47
3 -52 13 -177 361 -19 52 -144 394 -277 760 -133 366 -257 706 -275 755 -130
360 -173 478 -220 605 -29 80 -101 278 -160 440 -150 416 -132 378 -180 382
-22 2 -69 0 -104 -4z"/>
<path d="M1520 5344 c-139 -124 -239 -249 -305 -383 -25 -49 -45 -92 -45 -96
0 -4 -6 -21 -14 -38 -20 -43 -40 -118 -37 -137 2 -12 383 -1260 451 -1475 10
-33 82 -267 160 -520 77 -253 158 -516 180 -585 50 -161 146 -475 172 -565 24
-81 56 -116 130 -141 88 -29 187 -20 287 27 75 34 172 101 223 154 l35 37 -29
91 c-17 51 -52 162 -78 247 -47 152 -114 364 -210 670 -86 272 -160 510 -212
675 -27 88 -61 195 -74 238 -13 42 -35 112 -48 155 -50 158 -128 410 -156 497
-29 93 -154 492 -241 770 -28 88 -64 203 -81 255 -16 52 -35 112 -41 134 l-12
38 -55 -48z"/>
<path d="M5388 5298 c-15 -46 -45 -144 -68 -218 -23 -74 -49 -155 -57 -180 -8
-25 -37 -116 -64 -202 -27 -87 -71 -230 -99 -318 -27 -88 -72 -231 -99 -317
-27 -87 -79 -252 -116 -368 -37 -115 -73 -230 -80 -255 -7 -25 -75 -241 -150
-480 -75 -239 -147 -469 -160 -510 -13 -41 -60 -192 -105 -335 -45 -143 -100
-318 -122 -388 l-40 -129 43 -40 c200 -182 406 -236 560 -146 36 21 49 36 57
65 5 21 40 135 77 253 37 118 73 235 80 260 13 45 36 120 265 855 67 215 129
413 137 440 8 28 35 115 60 195 25 80 55 179 68 220 53 170 235 757 281 903
32 101 32 112 -1 217 -38 121 -100 240 -165 318 -48 57 -254 242 -270 242 -3
0 -18 -37 -32 -82z"/>
</g>
</svg>
