<svg version="1.0" xmlns="http://www.w3.org/2000/svg" width="933.333" height="933.333" viewBox="0 0 700 700"><path d="M330.8.5c-.2.1-4.5.6-9.6.9-5.1.4-10.2.9-11.2 1.1-1 .2-4.3.6-7.2.9-2.9.4-6.4.8-7.8 1.1-1.3.3-4.2.7-6.5 1-2.2.4-5.6 1-7.5 1.5-1.9.5-5.1 1.2-7 1.5-1.9.3-5.3 1.1-7.5 1.7-2.2.6-4.7 1.3-5.6 1.4-.9.2-6.9 2-13.5 3.9C204.9 28.4 161.5 52 125.2 82c-13.1 10.9-36.2 34.4-47.5 48.5-16.8 20.8-34.1 48.6-45.3 73-10.4 22.3-20.7 52.9-24 71.5-.3 1.4-.7 3.3-1 4.2-.8 2.6-2.9 15.6-4.9 30.3-1.4 9.7-2 22.4-1.9 40.5 0 24.2 1 38.7 3.9 55.1.3 1.4.7 4.2.9 6.2.9 7.1 7.7 34.4 11.2 45.2 32.1 99.4 105.9 179.1 201.6 217.9 11.2 4.6 20.9 7.9 39.3 13.6 6.6 2 25.1 6 34.1 7.4 2.2.4 5.3.9 6.9 1.2 3.2.5 6.3.9 18.5 2.1 14.4 1.5 62.4.8 76.7-1 93.9-12.2 177.1-60 234.5-134.7 6.8-8.9 19.8-27.6 19.8-28.6 0-.3.8-1.8 1.9-3.2 6.2-8.9 18.8-34.4 26.5-54 8.1-20.4 16.4-50.1 19-68.5 1-6.6 1.7-11.1 2.1-13.7 2.7-16.2 2.8-72.8.1-89-.3-1.4-.7-4.3-1-6.5-7.2-54.9-32.7-115.6-67.5-161-15.1-19.6-34.5-40.1-52-54.9C565 73.4 540.2 55 538.5 55c-.2 0-3.5-2-7.2-4.4-30.6-19.6-80.8-38.6-119-45-6.5-1.1-24.3-3.6-29.8-4.2-6-.6-51.1-1.4-51.7-.9zM384 6.3c1.4.3 5.4.8 9 1.2 7.5.7 30.8 4.9 39.5 7.1 48.2 12.1 94.4 34.7 131.5 64.3 20.8 16.6 43.1 39 57.5 57.5 1.7 2.2 3.9 5.1 5.1 6.5 14 17.6 32.9 50.9 43.7 77.1 3.3 8 12.2 34 13.2 38.5.2 1.1 1.4 5.8 2.5 10.5 6.8 28.6 9.4 51.1 9.4 82 0 15.5-1.1 37.6-1.9 39-.1.3-.5 2.7-.9 5.5-.3 2.7-.8 6.5-1.1 8.2-.3 1.8-.7 4.7-.9 6.4-.9 6.1-4.8 23.3-7.2 31.9-11.1 38.8-27.3 73.4-49.3 105-3.6 5.2-7.1 10.2-7.8 11-.6.8-4.2 5.3-8 10-23.8 29.8-55.3 57.2-90.3 78.5-9 5.5-29.2 16-39 20.3-18.9 8.3-52.7 19.1-67.7 21.6-1.8.4-4.8.8-6.5 1.1-1.8.3-4 .8-4.8 1-2.9.9-24.5 3.5-34.5 4.2-17.8 1.3-56.7.6-64.9-1.2-1.2-.2-4.1-.7-6.6-1-2.5-.3-5.6-.7-7-1-1.4-.2-4.1-.7-6-.9-26.3-3.6-66.3-16.8-96-31.7-17.7-8.9-42.9-24.8-55-34.6-.8-.6-5.3-4.2-9.9-7.9-10.2-8.2-34.5-32.1-43.1-42.4-9.1-10.9-9-10.9-14.6-18.5-32.6-44.4-53-92.2-62.4-146-2.3-13-2.4-13.8-4.5-36-.6-5.6-.6-41.3 0-45.5.2-1.9.6-6.7.9-10.5.6-7.7 1-10.8 3.1-24 2.3-14 2.4-14.2 6.2-29 11.5-45.1 31-85.6 59.7-123.5 4.3-5.8 8.6-11.2 9.5-12.1.9-.9 3.8-4.2 6.5-7.3 13.1-15.2 36.8-37.2 51.7-47.9 1.3-.9 5.2-3.8 8.7-6.3 16.8-12 44.3-27.2 64.2-35.4 5.8-2.3 11.9-4.9 13.5-5.6 1.7-.7 6.8-2.4 11.5-3.9 4.7-1.4 9.6-3.1 11-3.6 2.8-1 25.9-6.7 30.5-7.5 1.7-.2 3.7-.7 4.5-.9.8-.2 3.3-.6 5.5-1 2.2-.3 6.7-1 10-1.5s9.8-1.2 14.5-1.6c4.7-.3 8.7-.8 8.9-1 .7-.6 55.1.3 58.1.9z"/><path d="M204.1 137.2c-3.4.4-9.1 1.7-12.6 2.8-6.5 2.2-20.1 9.8-25.3 14.2l-2.8 2.4 9.4 23.9c5.1 13.2 10.6 27.4 12.2 31.5 1.6 4.1 4.6 12 6.8 17.5 2.1 5.5 10.5 27.1 18.6 48 8.1 20.9 15.1 38.9 15.6 40 .5 1.1 2.3 5.6 4 10 1.7 4.4 3.5 8.9 3.9 10 .5 1.1 2.8 6.9 5.1 13 2.3 6 4.6 11.9 5.1 13 .9 2 13.9 35.6 44.5 114.5 9.1 23.4 17.1 43.8 17.8 45.5.8 1.6 2.2 5.2 3.1 8 2.2 6 5.2 9.4 12.3 14.2 18.3 12.1 41.4 10.3 58-4.6 4.8-4.3.2 6.5 47.6-111.6 9.7-24.2 18.1-44.9 18.6-46 .5-1.1 5.2-12.6 10.4-25.5 8.8-22.1 14.2-35.4 50.9-126.5 32.8-81.4 29.9-73.6 28.1-75.7-7.6-8.3-28.2-16.1-44.9-17l-5.9-.3-8.3 21c-9.5 24.1-13.5 34.3-22.8 58-3.7 9.3-7.3 18.3-8 20-.7 1.6-3.2 7.9-5.5 14-2.3 6-4.6 11.9-5.1 13-1 2.3-16.7 42.2-39.3 100-8.7 22-16.1 40.9-16.6 42-.5 1.1-4.4 10.8-8.5 21.5-4.2 10.7-8 20.4-8.5 21.5-.5 1.1-2 4.7-3.2 7.9-3.3 8.3-6.5 10.4-15.4 9.7-4.7-.3-5.2-1.3-17.7-36.1-1.9-5.2-14.4-39.4-27.7-76-13.3-36.6-25.7-70.6-27.5-75.5-13-36-17.3-47.8-22-60.5-2.9-8-10.1-27.8-16-44-15-41.6-13.2-37.8-18-38.2-2.2-.2-6.9 0-10.4.4zM152 165.6c-13.9 12.4-23.9 24.9-30.5 38.3-2.5 4.9-4.5 9.2-4.5 9.6 0 .4-.6 2.1-1.4 3.8-2 4.3-4 11.8-3.7 13.7.2 1.2 38.3 126 45.1 147.5 1 3.3 8.2 26.7 16 52 7.7 25.3 15.8 51.6 18 58.5 5 16.1 14.6 47.5 17.2 56.5 2.4 8.1 5.6 11.6 13 14.1 8.8 2.9 18.7 2 28.7-2.7 7.5-3.4 17.2-10.1 22.3-15.4l3.5-3.7-2.9-9.1c-1.7-5.1-5.2-16.2-7.8-24.7-4.7-15.2-11.4-36.4-21-67-8.6-27.2-16-51-21.2-67.5-2.7-8.8-6.1-19.5-7.4-23.8-1.3-4.2-3.5-11.2-4.8-15.5-5-15.8-12.8-41-15.6-49.7-2.9-9.3-15.4-49.2-24.1-77-2.8-8.8-6.4-20.3-8.1-25.5-1.6-5.2-3.5-11.2-4.1-13.4l-1.2-3.8-5.5 4.8zm386.8 4.6c-1.5 4.6-4.5 14.4-6.8 21.8s-4.9 15.5-5.7 18c-.8 2.5-3.7 11.6-6.4 20.2-2.7 8.7-7.1 23-9.9 31.8-2.7 8.8-7.2 23.1-9.9 31.7-2.7 8.7-7.9 25.2-11.6 36.8-3.7 11.5-7.3 23-8 25.5-.7 2.5-7.5 24.1-15 48s-14.7 46.9-16 51c-1.3 4.1-6 19.2-10.5 33.5s-10 31.8-12.2 38.8l-4 12.9 4.3 4c20 18.2 40.6 23.6 56 14.6 3.6-2.1 4.9-3.6 5.7-6.5.5-2.1 4-13.5 7.7-25.3s7.3-23.5 8-26c1.3-4.5 3.6-12 26.5-85.5 6.7-21.5 12.9-41.3 13.7-44 .8-2.8 3.5-11.5 6-19.5s5.5-17.9 6.8-22c5.3-17 23.5-75.7 28.1-90.3 3.2-10.1 3.2-11.2-.1-21.7-3.8-12.1-10-24-16.5-31.8-4.8-5.7-25.4-24.2-27-24.2-.3 0-1.8 3.7-3.2 8.2z"/></svg>