<?xml version="1.0" encoding="UTF-8"?>
<!DOCTYPE svg PUBLIC "-//W3C//DTD SVG 1.1//EN" "http://www.w3.org/Graphics/SVG/1.1/DTD/svg11.dtd">
<!-- Creator: CorelDRAW X8 -->
<svg xmlns="http://www.w3.org/2000/svg" xml:space="preserve" width="75.9346mm" height="44.4633mm" version="1.1" style="shape-rendering:geometricPrecision; text-rendering:geometricPrecision; image-rendering:optimizeQuality; fill-rule:evenodd; clip-rule:evenodd"
viewBox="0 0 5682 3327"
 xmlns:xlink="http://www.w3.org/1999/xlink">
 <defs>
  <style type="text/css">
   <![CDATA[
    .fil0 {fill:#1872E0}
    .fil1 {fill:#1872E0;fill-rule:nonzero}
   ]]>
  </style>
 </defs>
 <g id="Layer_x0020_1">
  <metadata id="CorelCorpID_0Corel-Layer"/>
  <g id="_1574827438832">
   <path class="fil0" d="M3595 300c-28,-107 -53,-142 -153,-220l-384 1226c72,73 153,97 209,49 106,-340 222,-715 328,-1055z"/>
   <path class="fil0" d="M3427 67c-48,-49 -122,-60 -170,-62l-414 1051c-15,19 -44,20 -62,1l-383 -1055c-71,-11 -130,21 -179,62l480 1233c72,74 166,69 233,-1l495 -1229z"/>
   <path class="fil0" d="M2049 301c24,-83 59,-149 150,-224l382 1222c-72,74 -153,98 -209,50 -105,-340 -218,-707 -323,-1048z"/>
  </g>
  <path class="fil1" d="M808 2013c-40,-33 -84,-50 -136,-54l-276 716 -256 -716c-53,1 -99,19 -140,51l328 838c22,6 43,8 65,8 23,0 44,-2 65,-8l350 -835zm475 835l0 -870c-24,-6 -47,-8 -69,-8 -24,0 -49,2 -73,8l0 870c20,6 43,7 70,7 28,0 52,-1 72,-7zm1091 -64l-257 -321c127,-33 195,-114 195,-233 0,-168 -122,-265 -353,-265 -67,0 -144,9 -233,22l0 861c23,6 45,8 70,8 25,0 49,-2 73,-8l0 -752c31,-5 61,-7 94,-7 132,0 198,53 198,156 0,104 -82,150 -253,150l339 479c55,-15 97,-45 127,-90zm1087 21l-432 -867 -410 868c37,39 81,58 131,58l79 -189 415 0 88 191c50,-3 94,-23 129,-61zm-272 -251l-311 0 151 -337 160 337zm1309 -172l-363 -8c-7,17 -11,39 -11,63 0,25 3,45 11,67l214 -5 0 201c-59,27 -116,39 -176,39 -174,0 -268,-113 -268,-322 0,-206 104,-326 266,-326 85,0 156,25 225,83 51,-33 75,-63 75,-89 0,-62 -117,-120 -303,-120 -244,0 -411,177 -411,452 0,290 147,447 412,447 113,0 215,-28 319,-89l0 -200c0,-72 1,-138 10,-193zm1184 32c0,-287 -148,-449 -405,-449 -253,0 -406,166 -406,449 0,297 138,450 406,450 250,0 405,-168 405,-450zm-148 0c0,211 -92,325 -257,325 -168,0 -258,-111 -258,-325 0,-212 91,-323 258,-323 167,0 257,111 257,323z"/>
  <path class="fil1" d="M350 3261c-16,19 -34,29 -58,29 -43,0 -70,-33 -70,-88 0,-67 24,-101 71,-101 25,0 44,8 62,25 14,-11 22,-19 22,-27 0,-13 -31,-34 -79,-34 -73,0 -119,51 -119,134 0,81 41,127 113,127 29,0 50,-7 70,-23 11,-9 16,-17 16,-23 0,-11 -9,-18 -28,-19zm586 -66c0,-83 -43,-130 -118,-130 -73,0 -118,48 -118,130 0,87 40,131 118,131 73,0 118,-49 118,-131zm-43 0c0,62 -27,95 -75,95 -49,0 -75,-32 -75,-95 0,-61 27,-94 75,-94 49,0 75,33 75,94zm689 118l-75 -252 -90 181 -88 -181 -79 254c7,8 18,12 30,12 4,0 6,0 9,-1l49 -165 78 163 79 -163 46 164c4,0 6,0 8,0 15,0 26,-4 33,-12zm631 0l-75 -252 -90 181 -88 -181 -79 254c7,8 18,12 30,12 4,0 6,0 10,-1l49 -165 77 163 79 -163 46 164c4,0 6,0 8,0 15,0 26,-4 33,-12zm550 -118c0,-83 -44,-130 -118,-130 -74,0 -118,48 -118,130 0,87 40,131 118,131 72,0 118,-49 118,-131zm-44 0c0,62 -26,95 -74,95 -49,0 -75,-32 -75,-95 0,-61 26,-94 75,-94 48,0 74,33 74,94zm385 -119l0 241c23,6 48,9 74,9 92,0 142,-48 142,-137 0,-81 -49,-124 -143,-124 -29,0 -54,4 -73,11zm42 211l0 -183c12,-2 24,-3 34,-3 65,0 97,30 97,90 0,67 -32,99 -98,99 -11,0 -22,-1 -33,-3zm554 34l0 -252c-7,-2 -14,-3 -20,-3 -8,0 -15,1 -22,3l0 252c6,2 13,2 21,2 8,0 15,0 21,-2zm511 -252l-179 0c-10,6 -14,18 -15,37l76 -2 0 217c7,2 14,3 21,3 7,0 14,-1 21,-3l0 -217 61 2c11,-9 15,-21 15,-34l0 -3zm361 252l0 -252c-7,-2 -13,-3 -20,-3 -7,0 -14,1 -21,3l0 252c6,2 13,2 21,2 7,0 15,0 20,-2zm507 -37l-110 2 0 -82 92 2c2,-8 3,-14 3,-19 0,-6 -1,-12 -3,-19l-92 2 0 -66 104 2c1,-5 1,-10 1,-14 0,-8 -2,-16 -8,-23l-139 0 0 252 143 0c6,-10 9,-21 9,-33l0 -4zm465 -163c2,-10 3,-17 3,-20 0,-8 -2,-15 -5,-23 -15,-9 -32,-13 -54,-13 -53,0 -86,27 -86,67 0,40 21,55 62,74 32,14 50,24 50,47 0,22 -16,36 -45,36 -25,0 -46,-8 -71,-24l0 23c0,11 0,17 9,23 12,9 35,15 65,15 53,0 85,-29 85,-73 0,-33 -16,-57 -50,-73 -23,-11 -44,-15 -55,-28 -4,-5 -7,-11 -7,-19 0,-19 16,-31 44,-31 18,0 36,7 55,19z"/>
 </g>
</svg>
